<?xml version="1.0" standalone="no"?>
<!DOCTYPE svg PUBLIC "-//W3C//DTD SVG 20010904//EN"
 "http://www.w3.org/TR/2001/REC-SVG-20010904/DTD/svg10.dtd">
<svg version="1.0" xmlns="http://www.w3.org/2000/svg"
 width="700.000000pt" height="700.000000pt" viewBox="0 0 700.000000 700.000000"
 preserveAspectRatio="xMidYMid meet">
<metadata>
Created by potrace 1.11, written by Peter Selinger 2001-2013
</metadata>
<g transform="translate(0.000000,700.000000) scale(0.100000,-0.100000)"
fill="#000000" stroke="none">
<path d="M5685 6986 c-122 -29 -132 -38 -705 -611 l-539 -539 -1743 -1 c-959
-1 -1756 -5 -1773 -9 -149 -38 -266 -144 -320 -291 -17 -46 -18 -96 -21 -625
l-2 -576 -279 -279 c-153 -154 -284 -293 -291 -308 -37 -85 -18 -112 293 -423
151 -152 275 -278 276 -282 0 -4 1 -335 1 -735 1 -401 5 -752 9 -780 21 -129
119 -254 248 -316 l76 -36 772 -3 772 -3 569 -568 c313 -313 582 -576 598
-584 32 -16 99 -16 130 1 10 6 218 210 462 454 300 301 442 451 443 466 1 12
2 30 2 40 2 46 -15 81 -68 134 l-57 58 646 0 c510 0 646 -3 647 -12 0 -7 1
-182 2 -389 l2 -376 29 -37 c47 -62 59 -64 366 -61 295 3 299 3 395 40 161 60
280 185 348 362 l22 58 3 2270 c3 2534 7 2361 -66 2498 -72 134 -191 234 -337
283 -77 26 -88 27 -302 28 -123 1 -223 3 -223 5 0 3 62 68 138 145 147 151
182 203 200 306 20 109 -7 235 -69 325 -15 22 -87 99 -161 171 -132 130 -200
178 -283 198 -53 13 -159 14 -210 2z m150 -290 c39 -17 236 -203 267 -254 24
-39 26 -98 4 -139 -8 -15 -84 -97 -168 -180 l-154 -153 -199 200 -200 201 165
163 c101 100 175 166 190 169 46 8 60 7 95 -7z m-453 -734 l196 -198 -804
-804 -805 -804 -199 199 -200 200 802 802 c442 442 805 803 808 803 3 0 94
-89 202 -198z m-1247 -421 c5 -1 -193 -203 -439 -450 -247 -247 -453 -456
-458 -465 -5 -8 -80 -228 -166 -488 -133 -400 -157 -479 -151 -511 8 -48 35
-85 78 -108 32 -17 94 -18 1142 -18 l1109 -1 0 144 c0 106 -3 145 -12 148 -7
2 -291 3 -630 2 -340 0 -618 1 -618 2 0 2 15 11 33 20 17 9 419 402 892 873
l860 857 351 -1 351 -2 54 -25 c66 -30 125 -87 153 -148 l21 -45 3 -1967 c2
-2033 3 -1994 -33 -1959 -6 5 -39 20 -75 33 l-65 23 -1146 5 -1146 5 -1589
1589 c-985 986 -1601 1594 -1621 1602 -43 18 -70 17 -118 -5 l-40 -18 0 401
c0 394 1 402 22 436 26 41 56 62 102 69 27 5 3097 7 3136 2z m-2958 -1423
c106 -106 193 -196 193 -199 0 -3 -67 -73 -150 -155 -82 -81 -150 -153 -150
-158 0 -5 45 -54 100 -108 l101 -99 156 157 155 157 189 -189 189 -189 -157
-157 -157 -157 103 -102 c56 -55 104 -99 106 -98 2 2 73 73 157 156 l154 153
188 -189 189 -189 -157 -157 -156 -158 102 -102 103 -103 158 157 157 156 185
-185 c102 -102 185 -187 185 -190 0 -3 -69 -75 -154 -159 l-154 -154 103 -105
104 -104 157 157 157 157 189 -189 188 -188 -157 -157 -157 -157 102 -102 103
-102 25 24 c14 13 83 81 152 151 70 71 132 128 137 128 6 0 98 -88 205 -195
l194 -194 -309 -311 c-171 -170 -314 -309 -318 -307 -5 1 -757 751 -1671 1665
l-1662 1662 305 309 c168 170 310 309 316 310 5 0 96 -86 202 -191z m2380
-150 c-243 -82 -257 -86 -257 -78 0 7 102 318 122 369 9 24 14 19 143 -109
l135 -134 -143 -48z m-2036 -1860 l642 -643 -583 -3 c-564 -2 -585 -1 -624 18
-26 12 -48 33 -61 56 -19 35 -20 59 -20 625 0 324 1 589 2 589 1 0 291 -289
644 -642z m4995 -959 c67 -25 123 -75 158 -140 39 -70 43 -180 9 -249 -32 -65
-86 -118 -150 -147 -52 -24 -66 -26 -229 -27 -108 -1 -175 3 -177 9 -3 9 -1
549 2 568 0 4 76 7 169 6 138 -1 176 -4 218 -20z"/>
<path d="M5550 3792 c-5 -2 -9 -65 -9 -147 l-1 -143 145 -1 c133 -2 145 0 146
16 4 70 3 256 -1 266 -4 9 -43 12 -138 12 -72 0 -136 -1 -142 -3z"/>
<path d="M6131 3790 c-4 -3 -7 -68 -6 -145 l1 -140 144 -2 145 -2 1 144 c1
101 -2 145 -10 146 -51 4 -269 3 -275 -1z"/>
</g>
</svg>
